<mxfile host="app.diagrams.net" modified="2024-03-06T10:25:42.823Z" agent="Mozilla/5.0 (Windows NT 10.0; Win64; x64) AppleWebKit/537.36 (KHTML, like Gecko) Chrome/122.0.0.0 Safari/537.36" version="24.0.0" etag="y8O0sdSlhl0yEHxkX7OK" type="github">
  <diagram name="Страница — 1" id="_C1IO2oaU4Kj4IwKnlOQ">
    <mxGraphModel>
      <root>
        <mxCell id="0" />
        <mxCell id="1" parent="0" />
      </root>
    </mxGraphModel>
  </diagram>
</mxfile>
